<svg xmlns="http://www.w3.org/2000/svg" xmlns:xlink="http://www.w3.org/1999/xlink" viewBox="0 0 513.1 125.81"><defs><linearGradient id="204f167e-c24c-4d44-b73c-34f0d5a36119" x1="210.66" y1="15.01" x2="210.66" y2="77.41" gradientUnits="userSpaceOnUse"><stop offset="0" stop-color="#00adee"/><stop offset="0.54" stop-color="#005aa9"/><stop offset="1" stop-color="#002f66"/></linearGradient><linearGradient id="ef12b433-135e-41e5-909c-6fa4ae8a9d8b" x1="405.65" y1="13.72" x2="405.65" y2="78.72" gradientUnits="userSpaceOnUse"><stop offset="0" stop-color="#f9ec31"/><stop offset="0.54" stop-color="#f6921e"/><stop offset="1" stop-color="#ee4036"/></linearGradient><linearGradient id="2b3813e6-e9ff-4c23-bfa7-b0ea390b9930" x1="153.35" y1="13.96" x2="153.35" y2="72.25" gradientUnits="userSpaceOnUse"><stop offset="0" stop-color="#fff"/><stop offset="0.46" stop-color="#fff" stop-opacity="0"/></linearGradient><linearGradient id="91a1376e-f349-405a-ba6a-5bce86f3fa33" x1="192.13" y1="13.96" x2="192.13" y2="72.25" xlink:href="#2b3813e6-e9ff-4c23-bfa7-b0ea390b9930"/><linearGradient id="16e2e2fa-9e86-4d5f-b4f8-d2c29bd70483" x1="232.73" y1="13.96" x2="232.73" y2="72.25" xlink:href="#2b3813e6-e9ff-4c23-bfa7-b0ea390b9930"/><linearGradient id="d21294cd-221a-4b01-8e10-c642682f8440" x1="271.14" y1="13.96" x2="271.14" y2="72.25" xlink:href="#2b3813e6-e9ff-4c23-bfa7-b0ea390b9930"/><linearGradient id="86e23266-f2b0-4345-8f8b-35a4d5c9dcdf" x1="318.33" y1="13.96" x2="318.33" y2="72.25" xlink:href="#2b3813e6-e9ff-4c23-bfa7-b0ea390b9930"/><linearGradient id="c9dcb01d-031a-48eb-a4f4-903caeda97fc" x1="360.84" y1="13.96" x2="360.84" y2="72.25" xlink:href="#2b3813e6-e9ff-4c23-bfa7-b0ea390b9930"/><linearGradient id="b0d60efc-9ff7-4b6f-9fa3-cde85e282fa3" x1="405.11" y1="13.96" x2="405.11" y2="72.25" xlink:href="#2b3813e6-e9ff-4c23-bfa7-b0ea390b9930"/><linearGradient id="6156e1e6-c79a-4fd6-94cf-0addcf407f2c" x1="450.03" y1="13.96" x2="450.03" y2="72.25" xlink:href="#2b3813e6-e9ff-4c23-bfa7-b0ea390b9930"/><linearGradient id="f69fb799-0f45-4fff-bdd3-f68e0c336225" x1="493.43" y1="13.96" x2="493.43" y2="72.25" xlink:href="#2b3813e6-e9ff-4c23-bfa7-b0ea390b9930"/><linearGradient id="6ec33511-2da3-44c7-bb2c-d2fe112764cf" x1="232.73" y1="62.53" x2="232.73" y2="24.57" xlink:href="#2b3813e6-e9ff-4c23-bfa7-b0ea390b9930"/><linearGradient id="108ccb60-f0c7-4481-8b7a-7f85d22af8ba" x1="419.31" y1="62.29" x2="419.31" y2="24.6" xlink:href="#2b3813e6-e9ff-4c23-bfa7-b0ea390b9930"/><linearGradient id="a42f177b-eecb-4fbb-bf75-a1d4eaa758e4" x1="202.41" y1="59.79" x2="202.41" y2="24.94" xlink:href="#2b3813e6-e9ff-4c23-bfa7-b0ea390b9930"/><linearGradient id="bd8faea3-46a3-4a5e-9983-f03276bd8d2a" x1="182.28" y1="59.05" x2="182.28" y2="25.04" xlink:href="#2b3813e6-e9ff-4c23-bfa7-b0ea390b9930"/><linearGradient id="42d709b0-a74b-43b1-bf70-0d613f337aa6" x1="507.27" y1="52.27" x2="507.27" y2="25.96" xlink:href="#2b3813e6-e9ff-4c23-bfa7-b0ea390b9930"/><linearGradient id="c288b2ef-80a1-4039-987d-414c50ced436" x1="397.87" y1="63.75" x2="397.87" y2="24.4" xlink:href="#2b3813e6-e9ff-4c23-bfa7-b0ea390b9930"/><linearGradient id="63b53d80-5de6-41e7-b936-55ddd1896d1a" x1="152.46" y1="56.12" x2="152.46" y2="25.43" xlink:href="#2b3813e6-e9ff-4c23-bfa7-b0ea390b9930"/><linearGradient id="2831ecd1-161b-485a-ae7c-e6f6404783a4" x1="347" y1="64.9" x2="347" y2="24.24" xlink:href="#2b3813e6-e9ff-4c23-bfa7-b0ea390b9930"/><linearGradient id="04de2c31-ebea-4912-824a-d19e1868f998" x1="270.82" y1="64.53" x2="270.82" y2="24.29" xlink:href="#2b3813e6-e9ff-4c23-bfa7-b0ea390b9930"/><linearGradient id="3992cfc6-9eb2-4177-9631-2794abd3dba2" x1="449.76" y1="61.74" x2="449.76" y2="23.86" xlink:href="#2b3813e6-e9ff-4c23-bfa7-b0ea390b9930"/><linearGradient id="0ace5535-e0c5-407a-b345-772d15ef59c4" x1="374.68" y1="64.32" x2="374.68" y2="24.32" xlink:href="#2b3813e6-e9ff-4c23-bfa7-b0ea390b9930"/><linearGradient id="a66152fb-7ae0-442d-aff0-3329169f5e3b" x1="479.59" y1="56.7" x2="479.59" y2="25.36" xlink:href="#2b3813e6-e9ff-4c23-bfa7-b0ea390b9930"/><linearGradient id="34c89fd0-c501-440f-907c-c693cb9877cc" x1="317.45" y1="65.02" x2="317.45" y2="24.23" xlink:href="#2b3813e6-e9ff-4c23-bfa7-b0ea390b9930"/><linearGradient id="343e7709-0d8d-49f2-8d85-1a25918da48d" x1="176.94" y1="-593.17" x2="301.64" y2="-530.07" gradientTransform="translate(287.98 629.9) rotate(-45)" gradientUnits="userSpaceOnUse"><stop offset="0" stop-color="#002f66"/><stop offset="0.24" stop-color="#005aa9"/><stop offset="0.54" stop-color="#00adee"/><stop offset="0.82" stop-color="#005aa9"/><stop offset="1" stop-color="#002f66"/></linearGradient><linearGradient id="66f43639-713a-4bc8-a67f-7f204bfb116f" x1="90.92" y1="132.23" x2="25.84" y2="-31.9" xlink:href="#2b3813e6-e9ff-4c23-bfa7-b0ea390b9930"/></defs><title>logo-white</title><g style="isolation:isolate"><g id="5d7408cd-9d92-49f6-ac85-331f0c17e284" data-name="Layer 1"><text transform="translate(134.08 101.58)" font-size="40.8" fill="#fff" font-family="BankGothicBT-Light, BankGothic Lt BT">WE ADORE CODE</text><path d="M136.18,29.13h19.23a22.4,22.4,0,0,1,5.11.47,10.76,10.76,0,0,1,3.65,1.64,10.14,10.14,0,0,1,4.53,8.85,9.76,9.76,0,0,1-5.46,9.17,12.4,12.4,0,0,1,4.38,2.85,11,11,0,0,1,2.84,7.79,12,12,0,0,1-2.87,8q-4.09,4.89-12.08,4.89H136.18Zm5.87,5.53V47.83h14.16q3.25,0,4.73-1.7a7.63,7.63,0,0,0,1.89-5.24,6.6,6.6,0,0,0-1.7-4.63q-1.44-1.6-4.95-1.6Zm0,18V67.22h15a11.41,11.41,0,0,0,2.93-.29,5.56,5.56,0,0,0,2-1.05,7.15,7.15,0,0,0,2.55-6,7.53,7.53,0,0,0-1.91-5.49q-1.66-1.72-5.6-1.73Z" fill="url(#204f167e-c24c-4d44-b73c-34f0d5a36119)"/><path d="M174.33,29.13h7.19l12.62,19.81,12-19.81H213L196.82,54.31V72.75H191V54.6Z" fill="url(#204f167e-c24c-4d44-b73c-34f0d5a36119)"/><path d="M213.7,29.13h35v5.53H234.12V72.75h-5.88V34.66H213.7Z" fill="url(#204f167e-c24c-4d44-b73c-34f0d5a36119)"/><path d="M254,29.13h30.49v5.53H259.87V47.47H282.4V53H259.87V67.22h25.28v5.53H254Z" fill="url(#204f167e-c24c-4d44-b73c-34f0d5a36119)"/><path d="M301.16,29.13H320.4a22.46,22.46,0,0,1,5.11.47,10.71,10.71,0,0,1,3.64,1.64,10.13,10.13,0,0,1,4.54,8.85,9.76,9.76,0,0,1-5.46,9.17,12.45,12.45,0,0,1,4.37,2.85,11,11,0,0,1,2.85,7.79,11.9,11.9,0,0,1-2.88,8q-4.08,4.89-12.08,4.89H301.16ZM307,34.66V47.83H321.2q3.26,0,4.73-1.7a7.67,7.67,0,0,0,1.88-5.24,6.59,6.59,0,0,0-1.69-4.63q-1.44-1.6-4.95-1.6Zm0,18V67.22h15a11.27,11.27,0,0,0,2.92-.29,5.48,5.48,0,0,0,2-1.05,7.13,7.13,0,0,0,2.56-6,7.49,7.49,0,0,0-1.92-5.49q-1.66-1.72-5.59-1.73Z" fill="url(#ef12b433-135e-41e5-909c-6fa4ae8a9d8b)"/><path d="M344,29.13h5.88V57.67a9.68,9.68,0,0,0,2.59,7.19q3.07,3.06,8.41,3.06a11,11,0,0,0,7.92-2.76,9.87,9.87,0,0,0,2.91-7.52V29.13h5.88V57.57q0,7.38-4.76,11.63a17.73,17.73,0,0,1-12.18,4.25,17.22,17.22,0,0,1-11.89-4.12Q344,65.09,344,57.64Z" fill="url(#ef12b433-135e-41e5-909c-6fa4ae8a9d8b)"/><path d="M387.89,29.13h6.61l21.79,34.32V29.13h5.88V72.75H415.5L393.77,37.89V72.75h-5.88Z" fill="url(#ef12b433-135e-41e5-909c-6fa4ae8a9d8b)"/><path d="M469.18,57.16a14.6,14.6,0,0,1-2,7.66,17.93,17.93,0,0,1-6.84,6.72,19.73,19.73,0,0,1-9.62,2.33A18.62,18.62,0,0,1,438,69.43a18.89,18.89,0,0,1-4.86-6.68,28.67,28.67,0,0,1-2.33-11.51,27.23,27.23,0,0,1,3-13,17.38,17.38,0,0,1,8.73-8.09,21.35,21.35,0,0,1,8.5-1.72A21,21,0,0,1,459.3,30a15,15,0,0,1,6.08,4.44,13.66,13.66,0,0,1,3.16,8.5h-6a8.65,8.65,0,0,0-2.11-5.85,9.43,9.43,0,0,0-3.85-2.4,14.76,14.76,0,0,0-10.34,0,13.62,13.62,0,0,0-4.37,2.56Q437,41.5,437,51q0,9.1,4.63,13.61a13.63,13.63,0,0,0,9.14,3.61A14.71,14.71,0,0,0,457,66.9a10.21,10.21,0,0,0,4.39-3.45,11,11,0,0,0,1.89-6.29Z" fill="url(#ef12b433-135e-41e5-909c-6fa4ae8a9d8b)"/><path d="M476.56,29.13h5.88V47.47h21.83V29.13h5.88V72.75h-5.88V52.33H482.44V72.75h-5.88Z" fill="url(#ef12b433-135e-41e5-909c-6fa4ae8a9d8b)"/><path d="M137.1,71.85V30h18.34c4.07,0,6.15.49,8.26,1.93a9.71,9.71,0,0,1,4.13,8.16,8.88,8.88,0,0,1-5,8.38l-1.63.89,1.71.72A10.46,10.46,0,0,1,167,52.69a10.88,10.88,0,0,1,2.57,7.17c0,7.17-5.67,12-14.09,12Zm4.09-3.76h15.95c2.62,0,4-.4,5.47-1.57a7.92,7.92,0,0,0,2.9-6.66,8.81,8.81,0,0,0-2.15-6.12c-1.39-1.39-3.25-2-6.22-2H141.19Zm0-19.37h15c2.44,0,4.31-.71,5.4-2a9,9,0,0,0,2.11-5.81,8.08,8.08,0,0,0-1.93-5.25c-1.39-1.56-3.16-1.87-5.58-1.87h-15Z" fill="url(#2b3813e6-e9ff-4c23-bfa7-b0ea390b9930)"/><polygon points="190.31 71.85 190.31 54.35 174.44 30 179.49 30 192.64 50.63 205.1 30 209.82 30 194.4 54.03 194.4 71.85 190.31 71.85" fill="url(#91a1376e-f349-405a-ba6a-5bce86f3fa33)"/><polygon points="230.69 71.85 230.69 33.76 216.16 33.76 216.16 30 249.3 30 249.3 33.76 234.78 33.76 234.78 71.85 230.69 71.85" fill="url(#16e2e2fa-9e86-4d5f-b4f8-d2c29bd70483)"/><polygon points="256.47 71.85 256.47 30 285.17 30 285.17 33.76 260.56 33.76 260.56 48.39 283.07 48.39 283.07 52.15 260.56 52.15 260.56 68.09 285.82 68.09 285.82 71.85 256.47 71.85" fill="url(#d21294cd-221a-4b01-8e10-c642682f8440)"/><path d="M302.09,71.85V30h18.34c4.06,0,6.15.49,8.26,1.93a9.7,9.7,0,0,1,4.12,8.16,8.87,8.87,0,0,1-5,8.38l-1.63.89,1.71.72A10.41,10.41,0,0,1,332,52.69a10.83,10.83,0,0,1,2.57,7.17c0,7.17-5.66,12-14.09,12Zm4.09-3.76h15.95c2.62,0,4-.4,5.47-1.57a7.94,7.94,0,0,0,2.89-6.66,8.81,8.81,0,0,0-2.14-6.12c-1.4-1.39-3.25-2-6.22-2H306.18Zm0-19.37h15c2.45,0,4.32-.71,5.41-2a9,9,0,0,0,2.1-5.81,8.12,8.12,0,0,0-1.92-5.25c-1.39-1.56-3.17-1.87-5.59-1.87h-15Z" fill="url(#86e23266-f2b0-4345-8f8b-35a4d5c9dcdf)"/><path d="M360.68,72.57c-9.56,0-15.73-5.86-15.73-14.94V30H349V57.63c0,7,4.43,11.18,11.83,11.18s11.77-4.28,11.77-11.18V30h4.09V57.57C376.73,66.68,370.43,72.57,360.68,72.57Z" fill="url(#c9dcb01d-031a-48eb-a4f4-903caeda97fc)"/><polygon points="416.08 71.85 392.95 34.72 392.95 71.85 388.87 71.85 388.87 30 394.08 30 417.27 66.56 417.27 30 421.36 30 421.36 71.85 416.08 71.85" fill="url(#b0d60efc-9ff7-4b6f-9fa3-cde85e282fa3)"/><path d="M450.79,73c-11.58,0-19.06-8.51-19.06-21.68,0-6.94,2.29-13.3,6.14-17a19.32,19.32,0,0,1,13.18-5c9.09,0,15.91,5.32,16.59,12.79h-4.22A9.25,9.25,0,0,0,461,36.34c-2-2-6-3.5-9.63-3.5a15.55,15.55,0,0,0-10.09,3.7c-3.41,3-5.14,7.87-5.14,14.48,0,6.34,1.65,11.13,4.92,14.26a14.31,14.31,0,0,0,9.79,3.85c4.74,0,9.36-2.19,11.48-5.44a10.85,10.85,0,0,0,1.83-5.62h4.16a11.8,11.8,0,0,1-1.88,6.3C463.15,69.91,457.59,73,450.79,73Z" fill="url(#6156e1e6-c79a-4fd6-94cf-0addcf407f2c)"/><polygon points="505.22 71.85 505.22 51.43 481.63 51.43 481.63 71.85 477.54 71.85 477.54 30 481.63 30 481.63 48.39 505.22 48.39 505.22 30 509.31 30 509.31 71.85 505.22 71.85" fill="url(#f69fb799-0f45-4fff-bdd3-f68e0c336225)"/><path d="M250.2,34.66V29.1H215.26v5.56h14.53V49.52l5.89.23V34.66Z" fill="url(#6ec33511-2da3-44c7-bb2c-d2fe112764cf)"/><path d="M416.37,49.6l5.89-.24V29.1h-5.89Z" fill="url(#108ccb60-f0c7-4481-8b7a-7f85d22af8ba)"/><path d="M211.46,29.1h-6.87L193.36,47.7l5.94.35Z" fill="url(#a42f177b-eecb-4fbb-bf75-a1d4eaa758e4)"/><path d="M180,29.1h-7.2l11.74,18,7.25.48Z" fill="url(#bd8faea3-46a3-4a5e-9983-f03276bd8d2a)"/><path d="M504.32,43.41q3.06-.37,5.89-.76V29.1h-5.89Z" fill="url(#42d709b0-a74b-43b1-bf70-0d613f337aa6)"/><path d="M394.58,29.1H388V50.5l5.89-.16V37.87l7.63,12.25,6.3-.21Z" fill="url(#c288b2ef-80a1-4039-987d-414c50ced436)"/><path d="M164.21,31.19c-2.29-1.57-4.51-2.09-8.77-2.09H136.2V42.42q2.84.39,5.89.78V34.66h14.14c2.55,0,3.86.39,4.91,1.57a7.29,7.29,0,0,1,1.7,4.65,8.69,8.69,0,0,1-1.27,4.41l5.58.5a10.21,10.21,0,0,0,1.58-5.7A10.67,10.67,0,0,0,164.21,31.19Z" fill="url(#63b53d80-5de6-41e7-b936-55ddd1896d1a)"/><path d="M344.05,51.21l5.89-.05V29.1h-5.89Z" fill="url(#2831ecd1-161b-485a-ae7c-e6f6404783a4)"/><path d="M284,47.49H261.46V34.66h24.61V29.1h-30.5V50.38q13.81.38,28.4.6Z" fill="url(#04de2c31-ebea-4912-824a-d19e1868f998)"/><path d="M451.05,28.38a20.18,20.18,0,0,0-13.81,5.23c-3.56,3.45-5.86,9.08-6.32,15.37l6.21-.3c.37-5.12,2-9,4.76-11.47a14.69,14.69,0,0,1,9.49-3.47c3.4,0,7.2,1.38,9,3.21a8.66,8.66,0,0,1,2.22,6h6C468.4,34.46,461.07,28.38,451.05,28.38Z" fill="url(#3992cfc6-9eb2-4177-9631-2794abd3dba2)"/><path d="M371.74,50.85l5.89-.11V29.1h-5.89Z" fill="url(#0ace5535-e0c5-407a-b345-772d15ef59c4)"/><path d="M476.64,46.14l5.89-.49V29.1h-5.89Z" fill="url(#a66152fb-7ae0-442d-aff0-3329169f5e3b)"/><path d="M333.71,40.09a10.66,10.66,0,0,0-4.51-8.9c-2.29-1.57-4.52-2.09-8.77-2.09H301.19V51.19q11.26.09,22.86.09h7.78a12.56,12.56,0,0,0-3.55-2A9.8,9.8,0,0,0,333.71,40.09Zm-7.78,6c-.92,1.12-2.56,1.71-4.72,1.71H307.08V34.66h14.13c2.56,0,3.87.39,4.91,1.57a7.23,7.23,0,0,1,1.7,4.65A8.16,8.16,0,0,1,325.93,46.11Z" fill="url(#34c89fd0-c501-440f-907c-c693cb9877cc)"/><path d="M103.76,18.67c-.58,0-1.14,0-1.69,0A20,20,0,0,0,96,6.6,21.28,21.28,0,0,0,77.09.51c-5.16,1-8.87,3.17-14.12,8.4C51.51-2.24,36.57-3,26.48,7.08a22.85,22.85,0,0,0-6.8,14.79c0,.58,0,1.14,0,1.69a20,20,0,0,0-12.09,6.1A21.27,21.27,0,0,0,1.52,48.53c.94,5.06,3.07,8.71,8.05,13.78l-.75.75c-5.3,5.3-7.53,9-8.5,14.29a21.19,21.19,0,0,0,6.1,18.8,20,20,0,0,0,12.09,6.1c0,.56,0,1.14,0,1.74a22.79,22.79,0,0,0,6.79,14.74c10.21,10.2,25.37,9.3,36.87-2.2l.82-.82,1.1,1.1c5.3,5.3,9,7.52,14.29,8.5a21.19,21.19,0,0,0,18.8-6.1,20,20,0,0,0,6.1-12.09c.56,0,1.14,0,1.74,0a22.83,22.83,0,0,0,14.74-6.79c10.2-10.21,9.3-25.37-2.2-36.87l-1.17-1.17c11.48-11.5,12.37-26.65,2.18-36.85A22.86,22.86,0,0,0,103.76,18.67Z" fill="url(#343e7709-0d8d-49f2-8d85-1a25918da48d)"/><g opacity="0.5" style="mix-blend-mode:multiply"><polygon points="23.63 68.74 34 79.11 42.83 70.27 36.66 64.1 33.66 67.1 29.46 62.91 23.63 68.74" fill="#231f20"/><path d="M18.84,52.28c-2.68-2.68-3.64-4.46-3.5-6.8a10.68,10.68,0,0,1,3.08-6.65,12.09,12.09,0,0,1,7.48-3.5c2.13-.21,4.46.89,6.73,3.15l21,21L79.76,33.34,69.4,23,63.57,28.8,67.76,33,52.53,48.23,36.74,32.45c-2.88-2.89-4-5.15-4-7.62a11.66,11.66,0,0,1,3.77-7.75c2.81-2.82,5.76-4,8.92-3.57,2.47.27,4,1.17,6.59,3.7l4.56,4.57L62.37,16,59.52,13.1c-9.33-9.33-21.2-10.23-29.23-2.2A17.4,17.4,0,0,0,25.08,22c-.07,2.54.34,4.32,1.65,7.54a14.52,14.52,0,0,0-15.3,3.92,15.78,15.78,0,0,0-4.6,14.06c.75,4.05,2.54,6.93,7,11.39l2.78,2.78,5.83-5.83Z" fill="#231f20"/><path d="M103.61,24.07c-2.54-.07-4.32.34-7.55,1.65a14.51,14.51,0,0,0-3.91-15.3,15.78,15.78,0,0,0-14.06-4.6c-4,.75-6.93,2.54-11.39,7L46.52,33l10,10,6.17-6.17-4.19-4.2L73.35,17.82c2.68-2.67,4.46-3.63,6.79-3.49a10.68,10.68,0,0,1,6.66,3.08,12.09,12.09,0,0,1,3.5,7.48c.21,2.13-.89,4.46-3.16,6.73L72.92,45.84,78,50.92,93.18,35.73c2.88-2.88,5.15-4,7.62-4a11.74,11.74,0,0,1,7.75,3.78c2.81,2.81,4,5.76,3.57,8.92-.28,2.47-1.17,4-3.71,6.59l-4.91,4.91,5.83,5.83,3.2-3.2c9.33-9.33,10.22-21.2,2.2-29.23A17.4,17.4,0,0,0,103.61,24.07Z" fill="#231f20"/><polygon points="71.11 45.22 70.09 44.21 63.92 50.38 92.29 78.75 102.31 68.74 96.47 62.91 92.63 66.75 79.69 53.8 79.69 53.8 71.1 45.22 71.11 45.22" fill="#231f20"/><path d="M70.09,84l-6.17,6.18,2.65,2.64L50.78,108.6c-2.54,2.54-4.11,3.43-6.58,3.7-3.16.41-6.11-.75-8.92-3.57A11.69,11.69,0,0,1,31.5,101c0-2.47,1.17-4.73,4-7.62L50.74,78.18,45.66,73.1,31.43,87.33c-2.26,2.26-4.59,3.36-6.72,3.15A12.09,12.09,0,0,1,17.23,87a10.74,10.74,0,0,1-3.09-6.65c-.13-2.34.83-4.12,3.5-6.8L32.46,58.71,44,70.27l2.24,2.23,5.07,5.08,1.28,1.27,3.94,4,6.17-6.18L32.81,46.71,12.63,66.88c-4.46,4.46-6.24,7.34-7,11.39a15.8,15.8,0,0,0,4.6,14.06,14.51,14.51,0,0,0,15.3,3.91c-1.3,3.23-1.71,5-1.64,7.55a17.31,17.31,0,0,0,5.21,11.12c8,8,19.9,7.13,29.23-2.2L78.57,92.47Z" fill="#231f20"/><polygon points="56.5 101.61 62.33 95.77 59.72 93.17 82.61 70.27 76.44 64.1 47.72 92.82 56.5 101.61" fill="#231f20"/><path d="M90,62.9l3.84-3.84,15.79,15.79c2.53,2.53,3.43,4.11,3.7,6.58.41,3.16-.75,6.11-3.57,8.92A11.67,11.67,0,0,1,102,94.13c-2.47,0-4.73-1.17-7.62-4l-15.2-15.2L74.09,80,88.34,94.19c2.26,2.27,3.36,4.6,3.15,6.73A12.09,12.09,0,0,1,88,108.4a10.74,10.74,0,0,1-6.65,3.09c-2.34.13-4.12-.83-6.79-3.5l-5.11-5.11-5.83,5.83L67.89,113c4.46,4.46,7.34,6.25,11.39,7a15.76,15.76,0,0,0,14.06-4.59,14.53,14.53,0,0,0,3.92-15.3c3.22,1.3,5,1.71,7.54,1.64a17.38,17.38,0,0,0,11.12-5.21c8-8,7.13-19.9-2.2-29.23L93.48,47.06l-9.67,9.67Z" fill="#231f20"/></g><polygon points="34 77.83 24.91 68.74 29.46 64.18 33.66 68.37 36.66 65.37 41.56 70.27 34 77.83" fill="#fff"/><path d="M53.62,58.21,33.26,37.85c-2.46-2.47-5-3.65-7.44-3.42a12.91,12.91,0,0,0-8,3.76,11.69,11.69,0,0,0-3.35,7.24c-.15,2.56.87,4.59,3.76,7.48l3,3-4.56,4.56L14.46,58.3c-4.33-4.34-6-7.09-6.75-10.92a15,15,0,0,1,4.35-13.27,13.68,13.68,0,0,1,14.41-3.68l1.79.52-.7-1.72A15.94,15.94,0,0,1,26,22a16.34,16.34,0,0,1,4.95-10.5c7.7-7.71,18.94-6.82,28,2.19L61.1,16,56.54,20.5l-3.93-3.92c-2.7-2.7-4.43-3.67-7.12-4-3.42-.44-6.67.84-9.66,3.83a12.57,12.57,0,0,0-4,8.37c0,2.78,1.29,5.25,4.31,8.27L52.53,49.5,69,33,64.84,28.8l4.56-4.56,9.09,9.1Z" fill="#fff"/><path d="M109.33,60.44l-4.56-4.56,4.28-4.28c2.7-2.7,3.66-4.43,4-7.12.45-3.42-.84-6.67-3.82-9.66a12.65,12.65,0,0,0-8.37-4c-2.78,0-5.25,1.29-8.27,4.32L78,49.65l-3.81-3.81L87.78,32.25c2.47-2.46,3.65-5,3.42-7.44a12.91,12.91,0,0,0-3.76-8,11.69,11.69,0,0,0-7.24-3.35c-2.57-.15-4.59.87-7.48,3.76L57.26,32.64l4.19,4.2-4.9,4.9L47.8,33,67.33,13.45c4.33-4.33,7.09-6,10.92-6.75a15,15,0,0,1,13.26,4.35A13.67,13.67,0,0,1,95.2,25.46l-.52,1.79,1.72-.7c3.16-1.28,4.84-1.65,7.19-1.58a16.34,16.34,0,0,1,10.5,5c7.7,7.7,6.82,18.94-2.2,28Z" fill="#fff"/><polygon points="92.29 77.48 65.19 50.38 70.09 45.48 92.63 68.02 96.47 64.18 101.03 68.74 92.29 77.48" fill="#fff"/><path d="M57.69,112.08c-9,9-20.25,9.9-27.95,2.19a16.34,16.34,0,0,1-4.95-10.51c-.07-2.34.3-4,1.58-7.18l.7-1.72-1.79.52A13.68,13.68,0,0,1,10.87,91.7,15,15,0,0,1,6.52,78.42c.72-3.82,2.42-6.57,6.75-10.9L32.81,48,61.45,76.62l-4.9,4.9L32.46,57.44,17,72.9c-2.9,2.89-3.92,4.92-3.77,7.48a11.74,11.74,0,0,0,3.35,7.24,12.92,12.92,0,0,0,8.1,3.76c2.34.23,4.91-.95,7.38-3.42L45.66,74.37l3.8,3.81L34.92,92.73c-3,3-4.32,5.49-4.32,8.25a12.63,12.63,0,0,0,4,8.39c3,3,6.24,4.27,9.67,3.82,2.68-.29,4.41-1.26,7.11-4L67.84,92.81l-2.65-2.65,4.9-4.9,7.21,7.21Z" fill="#fff"/><polygon points="56.5 100.33 48.99 92.82 76.44 65.37 81.34 70.27 58.45 93.17 61.06 95.77 56.5 100.33" fill="#fff"/><path d="M115.28,95.89a16.34,16.34,0,0,1-10.51,5c-2.34.07-4-.3-7.18-1.58l-1.72-.7.52,1.79a13.68,13.68,0,0,1-3.68,14.41,15,15,0,0,1-13.28,4.35c-3.82-.72-6.57-2.42-10.9-6.75l-3.65-3.65,4.56-4.56,4.47,4.47c2.89,2.9,4.92,3.91,7.48,3.76A11.69,11.69,0,0,0,88.63,109a12.89,12.89,0,0,0,3.76-8.09c.23-2.34-1-4.92-3.42-7.38L75.37,80l3.8-3.8L93.74,90.72c3,3,5.49,4.3,8.25,4.31a12.63,12.63,0,0,0,8.39-4c3-3,4.27-6.24,3.82-9.67-.29-2.68-1.26-4.41-4-7.11L93.83,57.79,90,61.63l-4.9-4.9,8.4-8.4,19.61,19.61C122.1,77,123,88.19,115.28,95.89Z" fill="#fff"/><path d="M120.63,27.82a41.58,41.58,0,0,0-11.25-1.23,41.91,41.91,0,0,0-.69-7,19.43,19.43,0,0,0-4.93-.87c-.58,0-1.14,0-1.69,0A20,20,0,0,0,96,6.6,21.28,21.28,0,0,0,77.09.51c-5.16,1-8.87,3.17-14.12,8.4a33.56,33.56,0,0,0-9-6.33C50.82,3.75,47.62,5,44.4,6.3,36.53,9.53,29.05,13,22.05,16.71a42.56,42.56,0,0,0-1,9.88H19.78a47.57,47.57,0,0,0-9.53.78,24.3,24.3,0,0,0-2.64,2.29A21.27,21.27,0,0,0,1.52,48.53c.94,5.06,3.07,8.71,8.05,13.78l-.75.75c-5.3,5.3-7.53,9-8.5,14.29a21,21,0,0,0,3.79,16.1C23.44,92.77,48,87.2,73.31,76.81c20.26-8.31,38-18.45,51.57-28.88A22.87,22.87,0,0,0,120.63,27.82Z" fill="url(#66f43639-713a-4bc8-a67f-7f204bfb116f)"/></g></g></svg>